<?xml version="1.0" encoding="UTF-8"?>
<!-- Do not edit this file with editors other than draw.io -->
<!DOCTYPE svg PUBLIC "-//W3C//DTD SVG 1.1//EN" "http://www.w3.org/Graphics/SVG/1.1/DTD/svg11.dtd">
<svg xmlns="http://www.w3.org/2000/svg" style="background: transparent; background-color: transparent; color-scheme: light dark;" xmlns:xlink="http://www.w3.org/1999/xlink" version="1.1" width="61px" height="43px" viewBox="0 0 61 43" content="&lt;mxfile host=&quot;app.diagrams.net&quot; scale=&quot;1&quot; border=&quot;0&quot;&gt;&#xA;  &lt;diagram name=&quot;Page-1&quot; id=&quot;WYOzJ45rDBqBP0YGBKUu&quot;&gt;&#xA;    &lt;mxGraphModel dx=&quot;115&quot; dy=&quot;69&quot; grid=&quot;1&quot; gridSize=&quot;10&quot; guides=&quot;1&quot; tooltips=&quot;1&quot; connect=&quot;1&quot; arrows=&quot;1&quot; fold=&quot;1&quot; page=&quot;1&quot; pageScale=&quot;1&quot; pageWidth=&quot;850&quot; pageHeight=&quot;1100&quot; math=&quot;0&quot; shadow=&quot;0&quot;&gt;&#xA;      &lt;root&gt;&#xA;        &lt;mxCell id=&quot;0&quot; /&gt;&#xA;        &lt;mxCell id=&quot;1&quot; parent=&quot;0&quot; /&gt;&#xA;        &lt;mxCell id=&quot;2&quot; parent=&quot;1&quot; style=&quot;points=[[0.13,0.02,0],[0.5,0,0],[0.87,0.02,0],[0.885,0.4,0],[0.985,0.985,0],[0.5,1,0],[0.015,0.985,0],[0.115,0.4,0]];verticalLabelPosition=bottom;sketch=0;html=1;verticalAlign=top;aspect=fixed;align=center;pointerEvents=1;shape=mxgraph.cisco19.laptop2;fillColor=#fafafa;strokeColor=#1B226D;&quot; value=&quot;&quot; vertex=&quot;1&quot;&gt;&#xA;          &lt;mxGeometry height=&quot;41.75&quot; width=&quot;59.64&quot; as=&quot;geometry&quot; /&gt;&#xA;        &lt;/mxCell&gt;&#xA;      &lt;/root&gt;&#xA;    &lt;/mxGraphModel&gt;&#xA;  &lt;/diagram&gt;&#xA;&lt;/mxfile&gt;&#xA;"><defs/><g><g data-cell-id="0"><g data-cell-id="1"><g data-cell-id="eT74A4Kzjl4KOUDEq2GS-3"><g transform="translate(0.5,0.5)"><rect x="0" y="0" width="59.64" height="41.75" fill="none" stroke="none" pointer-events="all"/><path d="M 37.91 34.2 L 21.81 34.2 L 19.74 37.82 L 24.99 37.82 L 24.99 38.49 C 24.99 39.12 25.52 39.84 26.2 39.84 L 33.34 39.84 C 34 39.84 34.61 39.11 34.61 38.45 L 34.61 37.82 L 39.98 37.82 L 37.91 34.2 Z M 10.04 3.19 L 10.04 27.52 L 49.51 27.52 L 49.51 3.19 L 10.04 3.19 Z M 52.66 30.77 L 52.65 30.76 C 52.37 30.54 52.07 30.31 51.74 30.13 C 52.33 29.66 52.7 28.92 52.7 28.1 L 52.7 2.58 C 52.7 1.16 51.57 0 50.18 0 L 9.49 0 C 8.1 0 6.96 1.16 6.96 2.58 L 6.96 28.1 C 6.96 28.92 7.34 29.65 7.92 30.12 C 7.72 30.23 7.54 30.36 7.4 30.49 L 7.39 30.5 L 0 37.58 L 0 39.28 C 0 40.05 0.34 40.7 0.83 41.11 C 1.32 41.53 1.96 41.75 2.58 41.75 L 57.11 41.75 C 58.48 41.75 59.64 40.69 59.64 39.41 L 59.64 37.52 L 52.66 30.77 Z M 7.78 28.1 L 7.78 2.58 C 7.78 1.6 8.53 0.83 9.49 0.83 L 50.18 0.83 C 51.13 0.83 51.89 1.6 51.89 2.58 L 51.89 28.1 C 51.89 29.08 51.13 29.86 50.18 29.86 L 9.49 29.86 C 8.53 29.86 7.78 29.08 7.78 28.1 Z M 58.83 39.41 C 58.83 40.15 58.07 40.92 57.11 40.92 L 2.58 40.92 C 2.14 40.92 1.68 40.76 1.35 40.48 C 1.02 40.2 0.81 39.81 0.81 39.28 L 0.81 37.94 L 7.93 31.11 C 8.17 30.9 8.58 30.69 8.93 30.69 L 50.78 30.69 C 51.02 30.69 51.65 31.03 52.14 31.41 L 58.83 37.88 L 58.83 39.41 Z" fill="#1b226d" style="fill: light-dark(rgb(27, 34, 109), rgb(195, 201, 255));" stroke="none" pointer-events="all"/><path d="M 52.14 31.41 C 51.65 31.03 51.02 30.69 50.78 30.69 L 8.93 30.69 C 8.58 30.69 8.17 30.9 7.93 31.11 L 0.81 37.94 L 0.81 39.28 C 0.81 39.81 1.02 40.2 1.35 40.48 C 1.68 40.76 2.14 40.92 2.58 40.92 L 57.11 40.92 C 58.07 40.92 58.83 40.15 58.83 39.41 L 58.83 37.88 L 52.14 31.41 Z M 34.61 37.82 L 34.61 38.45 C 34.61 39.11 34 39.84 33.34 39.84 L 26.2 39.84 C 25.52 39.84 24.99 39.12 24.99 38.49 L 24.99 37.82 L 19.74 37.82 L 21.81 34.2 L 37.91 34.2 L 39.98 37.82 L 34.61 37.82 Z" fill="#fafafa" style="fill: light-dark(rgb(250, 250, 250), rgb(22, 22, 22));" stroke="none" pointer-events="all"/><path d="M 50.18 0.83 L 9.49 0.83 C 8.53 0.83 7.78 1.6 7.78 2.58 L 7.78 28.1 C 7.78 29.08 8.53 29.86 9.49 29.86 L 50.18 29.86 C 51.13 29.86 51.89 29.08 51.89 28.1 L 51.89 2.58 C 51.89 1.6 51.13 0.83 50.18 0.83 Z M 49.51 27.52 L 10.04 27.52 L 10.04 3.19 L 49.51 3.19 L 49.51 27.52 Z" fill="#fafafa" style="fill: light-dark(rgb(250, 250, 250), rgb(22, 22, 22));" stroke="none" pointer-events="all"/></g></g><g data-cell-id="eT74A4Kzjl4KOUDEq2GS-24"/></g></g></g></svg>